<mxfile host="app.diagrams.net" modified="2024-03-11T05:54:50.604Z" agent="Mozilla/5.0 (Windows NT 10.0; Win64; x64) AppleWebKit/537.36 (KHTML, like Gecko) Chrome/122.0.0.0 Safari/537.36 Edg/122.0.0.0" etag="7L8N0ky2m6vxtGAxFash" version="24.0.4" type="google">
  <diagram id="C5RBs43oDa-KdzZeNtuy" name="Page-1">
    <mxGraphModel grid="1" page="1" gridSize="10" guides="1" tooltips="1" connect="1" arrows="1" fold="1" pageScale="1" pageWidth="827" pageHeight="1169" math="0" shadow="0">
      <root>
        <mxCell id="WIyWlLk6GJQsqaUBKTNV-0" />
        <mxCell id="WIyWlLk6GJQsqaUBKTNV-1" parent="WIyWlLk6GJQsqaUBKTNV-0" />
        <mxCell id="mLmha8x_RcHNF_IgVyCJ-17" value="" style="edgeStyle=orthogonalEdgeStyle;rounded=0;orthogonalLoop=1;jettySize=auto;html=1;" edge="1" parent="WIyWlLk6GJQsqaUBKTNV-1" source="mLmha8x_RcHNF_IgVyCJ-0" target="mLmha8x_RcHNF_IgVyCJ-1">
          <mxGeometry relative="1" as="geometry" />
        </mxCell>
        <mxCell id="mLmha8x_RcHNF_IgVyCJ-18" value="" style="edgeStyle=orthogonalEdgeStyle;rounded=0;orthogonalLoop=1;jettySize=auto;html=1;" edge="1" parent="WIyWlLk6GJQsqaUBKTNV-1" source="mLmha8x_RcHNF_IgVyCJ-0" target="mLmha8x_RcHNF_IgVyCJ-1">
          <mxGeometry relative="1" as="geometry" />
        </mxCell>
        <mxCell id="mLmha8x_RcHNF_IgVyCJ-0" value="Start" style="ellipse;whiteSpace=wrap;html=1;" vertex="1" parent="WIyWlLk6GJQsqaUBKTNV-1">
          <mxGeometry x="240" width="140" height="90" as="geometry" />
        </mxCell>
        <mxCell id="MKyC7kQheSDn7mjb2sGd-1" value="" style="edgeStyle=orthogonalEdgeStyle;rounded=0;orthogonalLoop=1;jettySize=auto;html=1;" edge="1" parent="WIyWlLk6GJQsqaUBKTNV-1" source="mLmha8x_RcHNF_IgVyCJ-1" target="MKyC7kQheSDn7mjb2sGd-0">
          <mxGeometry relative="1" as="geometry" />
        </mxCell>
        <mxCell id="mLmha8x_RcHNF_IgVyCJ-1" value="Input a, b" style="shape=parallelogram;perimeter=parallelogramPerimeter;whiteSpace=wrap;html=1;fixedSize=1;" vertex="1" parent="WIyWlLk6GJQsqaUBKTNV-1">
          <mxGeometry x="230" y="145" width="160" height="80" as="geometry" />
        </mxCell>
        <mxCell id="mLmha8x_RcHNF_IgVyCJ-2" value="a % b = 0" style="rhombus;whiteSpace=wrap;html=1;" vertex="1" parent="WIyWlLk6GJQsqaUBKTNV-1">
          <mxGeometry x="245" y="568" width="130" height="111" as="geometry" />
        </mxCell>
        <mxCell id="mLmha8x_RcHNF_IgVyCJ-3" value="&lt;br&gt;&lt;span style=&quot;color: rgb(0, 0, 0); font-family: Helvetica; font-size: 12px; font-style: normal; font-variant-ligatures: normal; font-variant-caps: normal; font-weight: 400; letter-spacing: normal; orphans: 2; text-align: center; text-indent: 0px; text-transform: none; widows: 2; word-spacing: 0px; -webkit-text-stroke-width: 0px; white-space: normal; background-color: rgb(251, 251, 251); text-decoration-thickness: initial; text-decoration-style: initial; text-decoration-color: initial; display: inline !important; float: none;&quot;&gt;Display a không chia hết cho b&lt;/span&gt;&lt;div&gt;&lt;br/&gt;&lt;/div&gt;" style="shape=parallelogram;perimeter=parallelogramPerimeter;whiteSpace=wrap;html=1;fixedSize=1;" vertex="1" parent="WIyWlLk6GJQsqaUBKTNV-1">
          <mxGeometry x="430" y="718" width="190" height="81" as="geometry" />
        </mxCell>
        <mxCell id="MKyC7kQheSDn7mjb2sGd-7" value="" style="edgeStyle=orthogonalEdgeStyle;rounded=0;orthogonalLoop=1;jettySize=auto;html=1;" edge="1" parent="WIyWlLk6GJQsqaUBKTNV-1" source="mLmha8x_RcHNF_IgVyCJ-4" target="mLmha8x_RcHNF_IgVyCJ-5">
          <mxGeometry relative="1" as="geometry" />
        </mxCell>
        <mxCell id="mLmha8x_RcHNF_IgVyCJ-4" value="Display a chia hết cho b" style="shape=parallelogram;perimeter=parallelogramPerimeter;whiteSpace=wrap;html=1;fixedSize=1;" vertex="1" parent="WIyWlLk6GJQsqaUBKTNV-1">
          <mxGeometry x="220" y="719" width="180" height="81" as="geometry" />
        </mxCell>
        <mxCell id="mLmha8x_RcHNF_IgVyCJ-5" value="End" style="ellipse;whiteSpace=wrap;html=1;" vertex="1" parent="WIyWlLk6GJQsqaUBKTNV-1">
          <mxGeometry x="240" y="890" width="140" height="91" as="geometry" />
        </mxCell>
        <mxCell id="mLmha8x_RcHNF_IgVyCJ-7" value="Yes" style="endArrow=classic;html=1;rounded=0;" edge="1" parent="WIyWlLk6GJQsqaUBKTNV-1">
          <mxGeometry x="-0.2667" width="50" height="50" relative="1" as="geometry">
            <mxPoint x="310" y="680" as="sourcePoint" />
            <mxPoint x="310" y="720" as="targetPoint" />
            <mxPoint as="offset" />
          </mxGeometry>
        </mxCell>
        <mxCell id="mLmha8x_RcHNF_IgVyCJ-8" value="Yes" style="endArrow=classic;html=1;rounded=0;" edge="1" parent="WIyWlLk6GJQsqaUBKTNV-1">
          <mxGeometry width="50" height="50" relative="1" as="geometry">
            <mxPoint x="309.5" y="508" as="sourcePoint" />
            <mxPoint x="309.5" y="568" as="targetPoint" />
          </mxGeometry>
        </mxCell>
        <mxCell id="mLmha8x_RcHNF_IgVyCJ-9" value="" style="endArrow=classic;html=1;rounded=0;entryX=0.5;entryY=0;entryDx=0;entryDy=0;" edge="1" parent="WIyWlLk6GJQsqaUBKTNV-1" target="mLmha8x_RcHNF_IgVyCJ-1">
          <mxGeometry width="50" height="50" relative="1" as="geometry">
            <mxPoint x="310" y="90" as="sourcePoint" />
            <mxPoint x="310" y="140" as="targetPoint" />
          </mxGeometry>
        </mxCell>
        <mxCell id="MKyC7kQheSDn7mjb2sGd-9" value="Yes" style="edgeStyle=orthogonalEdgeStyle;rounded=0;orthogonalLoop=1;jettySize=auto;html=1;" edge="1" parent="WIyWlLk6GJQsqaUBKTNV-1" source="MKyC7kQheSDn7mjb2sGd-0" target="MKyC7kQheSDn7mjb2sGd-8">
          <mxGeometry relative="1" as="geometry" />
        </mxCell>
        <mxCell id="MKyC7kQheSDn7mjb2sGd-13" value="No" style="edgeStyle=orthogonalEdgeStyle;rounded=0;orthogonalLoop=1;jettySize=auto;html=1;" edge="1" parent="WIyWlLk6GJQsqaUBKTNV-1" source="MKyC7kQheSDn7mjb2sGd-0" target="MKyC7kQheSDn7mjb2sGd-12">
          <mxGeometry relative="1" as="geometry" />
        </mxCell>
        <mxCell id="MKyC7kQheSDn7mjb2sGd-0" value="a ≥ 0 &amp;amp;&amp;amp; b ≥0?" style="rhombus;whiteSpace=wrap;html=1;" vertex="1" parent="WIyWlLk6GJQsqaUBKTNV-1">
          <mxGeometry x="210" y="272" width="200" height="80" as="geometry" />
        </mxCell>
        <mxCell id="MKyC7kQheSDn7mjb2sGd-2" value="No" style="edgeStyle=segmentEdgeStyle;endArrow=classic;html=1;curved=0;rounded=0;endSize=8;startSize=8;entryX=0.5;entryY=0;entryDx=0;entryDy=0;" edge="1" parent="WIyWlLk6GJQsqaUBKTNV-1" target="mLmha8x_RcHNF_IgVyCJ-3">
          <mxGeometry width="50" height="50" relative="1" as="geometry">
            <mxPoint x="375" y="623" as="sourcePoint" />
            <mxPoint x="425" y="573" as="targetPoint" />
          </mxGeometry>
        </mxCell>
        <mxCell id="MKyC7kQheSDn7mjb2sGd-4" value="" style="edgeStyle=elbowEdgeStyle;elbow=vertical;endArrow=classic;html=1;curved=0;rounded=0;endSize=8;startSize=8;entryX=0.5;entryY=0;entryDx=0;entryDy=0;exitX=0.5;exitY=1;exitDx=0;exitDy=0;" edge="1" parent="WIyWlLk6GJQsqaUBKTNV-1" source="mLmha8x_RcHNF_IgVyCJ-3" target="mLmha8x_RcHNF_IgVyCJ-5">
          <mxGeometry width="50" height="50" relative="1" as="geometry">
            <mxPoint x="490" y="880" as="sourcePoint" />
            <mxPoint x="540" y="830" as="targetPoint" />
          </mxGeometry>
        </mxCell>
        <mxCell id="MKyC7kQheSDn7mjb2sGd-15" value="" style="edgeStyle=orthogonalEdgeStyle;rounded=0;orthogonalLoop=1;jettySize=auto;html=1;" edge="1" parent="WIyWlLk6GJQsqaUBKTNV-1" source="MKyC7kQheSDn7mjb2sGd-8" target="MKyC7kQheSDn7mjb2sGd-14">
          <mxGeometry relative="1" as="geometry" />
        </mxCell>
        <mxCell id="MKyC7kQheSDn7mjb2sGd-8" value="b ≠ 0" style="rhombus;whiteSpace=wrap;html=1;" vertex="1" parent="WIyWlLk6GJQsqaUBKTNV-1">
          <mxGeometry x="210" y="432" width="200" height="80" as="geometry" />
        </mxCell>
        <mxCell id="MKyC7kQheSDn7mjb2sGd-19" value="" style="edgeStyle=orthogonalEdgeStyle;rounded=0;orthogonalLoop=1;jettySize=auto;html=1;" edge="1" parent="WIyWlLk6GJQsqaUBKTNV-1">
          <mxGeometry relative="1" as="geometry">
            <mxPoint x="40" y="794" as="sourcePoint" />
            <mxPoint x="310" y="885" as="targetPoint" />
            <Array as="points">
              <mxPoint x="40" y="845" />
              <mxPoint x="310" y="845" />
            </Array>
          </mxGeometry>
        </mxCell>
        <mxCell id="MKyC7kQheSDn7mjb2sGd-12" value="Display lỗi dữ liệu" style="shape=parallelogram;perimeter=parallelogramPerimeter;whiteSpace=wrap;html=1;fixedSize=1;" vertex="1" parent="WIyWlLk6GJQsqaUBKTNV-1">
          <mxGeometry x="-50" y="719" width="180" height="80" as="geometry" />
        </mxCell>
        <mxCell id="MKyC7kQheSDn7mjb2sGd-17" value="" style="edgeStyle=orthogonalEdgeStyle;rounded=0;orthogonalLoop=1;jettySize=auto;html=1;" edge="1" parent="WIyWlLk6GJQsqaUBKTNV-1">
          <mxGeometry relative="1" as="geometry">
            <mxPoint x="760" y="795" as="sourcePoint" />
            <mxPoint x="310" y="890.5" as="targetPoint" />
            <Array as="points">
              <mxPoint x="760" y="845" />
              <mxPoint x="310" y="845" />
            </Array>
          </mxGeometry>
        </mxCell>
        <mxCell id="MKyC7kQheSDn7mjb2sGd-14" value="Display lỗi chia cho 0" style="shape=parallelogram;perimeter=parallelogramPerimeter;whiteSpace=wrap;html=1;fixedSize=1;" vertex="1" parent="WIyWlLk6GJQsqaUBKTNV-1">
          <mxGeometry x="670" y="718" width="180" height="82" as="geometry" />
        </mxCell>
        <mxCell id="MKyC7kQheSDn7mjb2sGd-20" value="&lt;font style=&quot;font-size: 14px;&quot;&gt;&lt;b&gt;&lt;br&gt;Prototype: int chiahet(int a, int b)&lt;br&gt;&lt;/b&gt;&lt;/font&gt;" style="text;html=1;align=center;verticalAlign=middle;whiteSpace=wrap;rounded=0;" vertex="1" parent="WIyWlLk6GJQsqaUBKTNV-1">
          <mxGeometry x="-10" width="240" height="50" as="geometry" />
        </mxCell>
      </root>
    </mxGraphModel>
  </diagram>
</mxfile>
